<svg width="11" height="12" viewBox="0 0 11 12" xmlns="http://www.w3.org/2000/svg">
<path d="M4.98229 8.15875L1.68504 4.38988C1.29591 3.94644 1.61216 3.25 2.20273 3.25H8.79723C8.92939 3.24989 9.05879 3.28787 9.16993 3.35941C9.28106 3.43095 9.36922 3.533 9.42385 3.65335C9.47847 3.7737 9.49725 3.90725 9.47793 4.038C9.45861 4.16875 9.40201 4.29115 9.31491 4.39056L6.01766 8.15806C5.95313 8.23191 5.87355 8.29109 5.78426 8.33164C5.69498 8.37219 5.59804 8.39317 5.49998 8.39317C5.40191 8.39317 5.30498 8.37219 5.21569 8.33164C5.1264 8.29109 5.04682 8.23191 4.98229 8.15806V8.15875Z" fill="currentColor"/>
</svg>
