<svg width="14" height="14" viewBox="0 0 14 14" xmlns="http://www.w3.org/2000/svg">
<path d="M12.25 0H1.75C1.28587 0 0.840752 0.184374 0.512563 0.512563C0.184374 0.840752 0 1.28587 0 1.75L0 12.25C0 12.7141 0.184374 13.1592 0.512563 13.4874C0.840752 13.8156 1.28587 14 1.75 14H12.25C12.7141 14 13.1592 13.8156 13.4874 13.4874C13.8156 13.1592 14 12.7141 14 12.25V1.75C14 1.28587 13.8156 0.840752 13.4874 0.512563C13.1592 0.184374 12.7141 0 12.25 0V0ZM0.875 3.37488C0.875 2.961 1.267 2.625 1.75 2.625H12.25C12.733 2.625 13.125 2.961 13.125 3.37488V12.3751C13.125 12.789 12.733 13.125 12.25 13.125H1.75C1.267 13.125 0.875 12.789 0.875 12.3751V3.37488Z" fill="currentColor"/>
<path d="M5.6875 6.125C5.91956 6.125 6.14212 6.03281 6.30622 5.86872C6.47031 5.70462 6.5625 5.48206 6.5625 5.25C6.5625 5.01794 6.47031 4.79538 6.30622 4.63128C6.14212 4.46719 5.91956 4.375 5.6875 4.375C5.45544 4.375 5.23288 4.46719 5.06878 4.63128C4.90469 4.79538 4.8125 5.01794 4.8125 5.25C4.8125 5.48206 4.90469 5.70462 5.06878 5.86872C5.23288 6.03281 5.45544 6.125 5.6875 6.125ZM8.3125 6.125C8.54456 6.125 8.76712 6.03281 8.93122 5.86872C9.09531 5.70462 9.1875 5.48206 9.1875 5.25C9.1875 5.01794 9.09531 4.79538 8.93122 4.63128C8.76712 4.46719 8.54456 4.375 8.3125 4.375C8.08044 4.375 7.85788 4.46719 7.69378 4.63128C7.52969 4.79538 7.4375 5.01794 7.4375 5.25C7.4375 5.48206 7.52969 5.70462 7.69378 5.86872C7.85788 6.03281 8.08044 6.125 8.3125 6.125ZM10.9375 6.125C11.1696 6.125 11.3921 6.03281 11.5562 5.86872C11.7203 5.70462 11.8125 5.48206 11.8125 5.25C11.8125 5.01794 11.7203 4.79538 11.5562 4.63128C11.3921 4.46719 11.1696 4.375 10.9375 4.375C10.7054 4.375 10.4829 4.46719 10.3188 4.63128C10.1547 4.79538 10.0625 5.01794 10.0625 5.25C10.0625 5.48206 10.1547 5.70462 10.3188 5.86872C10.4829 6.03281 10.7054 6.125 10.9375 6.125ZM3.0625 8.75C3.29456 8.75 3.51712 8.65781 3.68122 8.49372C3.84531 8.32962 3.9375 8.10706 3.9375 7.875C3.9375 7.64294 3.84531 7.42038 3.68122 7.25628C3.51712 7.09219 3.29456 7 3.0625 7C2.83044 7 2.60788 7.09219 2.44378 7.25628C2.27969 7.42038 2.1875 7.64294 2.1875 7.875C2.1875 8.10706 2.27969 8.32962 2.44378 8.49372C2.60788 8.65781 2.83044 8.75 3.0625 8.75ZM5.6875 8.75C5.91956 8.75 6.14212 8.65781 6.30622 8.49372C6.47031 8.32962 6.5625 8.10706 6.5625 7.875C6.5625 7.64294 6.47031 7.42038 6.30622 7.25628C6.14212 7.09219 5.91956 7 5.6875 7C5.45544 7 5.23288 7.09219 5.06878 7.25628C4.90469 7.42038 4.8125 7.64294 4.8125 7.875C4.8125 8.10706 4.90469 8.32962 5.06878 8.49372C5.23288 8.65781 5.45544 8.75 5.6875 8.75ZM8.3125 8.75C8.54456 8.75 8.76712 8.65781 8.93122 8.49372C9.09531 8.32962 9.1875 8.10706 9.1875 7.875C9.1875 7.64294 9.09531 7.42038 8.93122 7.25628C8.76712 7.09219 8.54456 7 8.3125 7C8.08044 7 7.85788 7.09219 7.69378 7.25628C7.52969 7.42038 7.4375 7.64294 7.4375 7.875C7.4375 8.10706 7.52969 8.32962 7.69378 8.49372C7.85788 8.65781 8.08044 8.75 8.3125 8.75ZM10.9375 8.75C11.1696 8.75 11.3921 8.65781 11.5562 8.49372C11.7203 8.32962 11.8125 8.10706 11.8125 7.875C11.8125 7.64294 11.7203 7.42038 11.5562 7.25628C11.3921 7.09219 11.1696 7 10.9375 7C10.7054 7 10.4829 7.09219 10.3188 7.25628C10.1547 7.42038 10.0625 7.64294 10.0625 7.875C10.0625 8.10706 10.1547 8.32962 10.3188 8.49372C10.4829 8.65781 10.7054 8.75 10.9375 8.75ZM3.0625 11.375C3.29456 11.375 3.51712 11.2828 3.68122 11.1187C3.84531 10.9546 3.9375 10.7321 3.9375 10.5C3.9375 10.2679 3.84531 10.0454 3.68122 9.88128C3.51712 9.71719 3.29456 9.625 3.0625 9.625C2.83044 9.625 2.60788 9.71719 2.44378 9.88128C2.27969 10.0454 2.1875 10.2679 2.1875 10.5C2.1875 10.7321 2.27969 10.9546 2.44378 11.1187C2.60788 11.2828 2.83044 11.375 3.0625 11.375ZM5.6875 11.375C5.91956 11.375 6.14212 11.2828 6.30622 11.1187C6.47031 10.9546 6.5625 10.7321 6.5625 10.5C6.5625 10.2679 6.47031 10.0454 6.30622 9.88128C6.14212 9.71719 5.91956 9.625 5.6875 9.625C5.45544 9.625 5.23288 9.71719 5.06878 9.88128C4.90469 10.0454 4.8125 10.2679 4.8125 10.5C4.8125 10.7321 4.90469 10.9546 5.06878 11.1187C5.23288 11.2828 5.45544 11.375 5.6875 11.375ZM8.3125 11.375C8.54456 11.375 8.76712 11.2828 8.93122 11.1187C9.09531 10.9546 9.1875 10.7321 9.1875 10.5C9.1875 10.2679 9.09531 10.0454 8.93122 9.88128C8.76712 9.71719 8.54456 9.625 8.3125 9.625C8.08044 9.625 7.85788 9.71719 7.69378 9.88128C7.52969 10.0454 7.4375 10.2679 7.4375 10.5C7.4375 10.7321 7.52969 10.9546 7.69378 11.1187C7.85788 11.2828 8.08044 11.375 8.3125 11.375Z" fill="currentColor"/>
</svg>
