<svg width="16" height="18" viewBox="0 0 16 18" xmlns="http://www.w3.org/2000/svg">
<path d="M16 9C16 11.1217 15.1571 13.1566 13.6569 14.6569C12.1566 16.1571 10.1217 17 8 17C5.87827 17 3.84344 16.1571 2.34315 14.6569C0.842855 13.1566 0 11.1217 0 9C0 6.87827 0.842855 4.84344 2.34315 3.34315C3.84344 1.84285 5.87827 1 8 1C10.1217 1 12.1566 1.84285 13.6569 3.34315C15.1571 4.84344 16 6.87827 16 9ZM5.354 5.646C5.26011 5.55211 5.13278 5.49937 5 5.49937C4.86722 5.49937 4.73989 5.55211 4.646 5.646C4.55211 5.73989 4.49937 5.86722 4.49937 6C4.49937 6.13278 4.55211 6.26011 4.646 6.354L7.293 9L4.646 11.646C4.59951 11.6925 4.56264 11.7477 4.53748 11.8084C4.51232 11.8692 4.49937 11.9343 4.49937 12C4.49937 12.0657 4.51232 12.1308 4.53748 12.1916C4.56264 12.2523 4.59951 12.3075 4.646 12.354C4.73989 12.4479 4.86722 12.5006 5 12.5006C5.06574 12.5006 5.13084 12.4877 5.19158 12.4625C5.25232 12.4374 5.30751 12.4005 5.354 12.354L8 9.707L10.646 12.354C10.6925 12.4005 10.7477 12.4374 10.8084 12.4625C10.8692 12.4877 10.9343 12.5006 11 12.5006C11.0657 12.5006 11.1308 12.4877 11.1916 12.4625C11.2523 12.4374 11.3075 12.4005 11.354 12.354C11.4005 12.3075 11.4374 12.2523 11.4625 12.1916C11.4877 12.1308 11.5006 12.0657 11.5006 12C11.5006 11.9343 11.4877 11.8692 11.4625 11.8084C11.4374 11.7477 11.4005 11.6925 11.354 11.646L8.707 9L11.354 6.354C11.4005 6.30751 11.4374 6.25232 11.4625 6.19158C11.4877 6.13084 11.5006 6.06574 11.5006 6C11.5006 5.93426 11.4877 5.86916 11.4625 5.80842C11.4374 5.74768 11.4005 5.69249 11.354 5.646C11.3075 5.59951 11.2523 5.56264 11.1916 5.53748C11.1308 5.51232 11.0657 5.49937 11 5.49937C10.9343 5.49937 10.8692 5.51232 10.8084 5.53748C10.7477 5.56264 10.6925 5.59951 10.646 5.646L8 8.293L5.354 5.646Z" fill="currentColor"/>
</svg>
