<svg width="16" height="18" viewBox="0 0 16 18" xmlns="http://www.w3.org/2000/svg">
<path d="M16 9C16 13.4183 12.4183 17 8 17C3.58172 17 0 13.4183 0 9C0 4.58172 3.58172 1 8 1C12.4183 1 16 4.58172 16 9Z" fill="currentColor"/>
<path d="M11.8998 5.98919C11.964 6.05355 12 6.14073 12 6.23161C12 6.32249 11.964 6.40967 11.8998 6.47403L11.1834 7.191L9.80975 5.8175L10.5261 5.10054C10.5905 5.03616 10.6779 5 10.7689 5C10.86 5 10.9473 5.03616 11.0117 5.10054L11.8998 5.98919ZM10.6978 7.67584L9.32416 6.30234L4.64474 10.9818C4.60694 11.0196 4.57848 11.0657 4.56164 11.1164L4.00873 12.7743C3.99871 12.8045 3.99728 12.8369 4.00462 12.8679C4.01196 12.8989 4.02777 12.9272 4.05029 12.9497C4.07281 12.9722 4.10115 12.988 4.13214 12.9954C4.16313 13.0027 4.19555 13.0013 4.22577 12.9913L5.8838 12.4384C5.93446 12.4218 5.98055 12.3936 6.01842 12.356L10.6978 7.67584Z" fill="white"/>
</svg>
