<svg width="32" height="32" viewBox="0 0 32 32" xmlns="http://www.w3.org/2000/svg">
<path d="M15.9999 17.7236C16.9518 17.7236 17.7235 16.9519 17.7235 16C17.7235 15.0481 16.9518 14.2764 15.9999 14.2764C15.048 14.2764 14.2763 15.0481 14.2763 16C14.2763 16.9519 15.048 17.7236 15.9999 17.7236Z" fill="currentColor"/>
<path d="M25.5929 14.2917L23.1835 13.84C23.0371 13.3527 22.8451 12.8853 22.6077 12.4456L24.0016 10.4077C24.1307 10.2191 24.1042 9.93531 23.9425 9.77399L22.2239 8.05493C22.0621 7.8932 21.7788 7.86714 21.5902 7.99578L19.5518 9.39055C19.0993 9.14651 18.6174 8.95086 18.1152 8.80319L17.666 6.4066C17.6234 6.182 17.4046 6 17.1759 6H14.7449C14.5162 6 14.2974 6.182 14.2548 6.4066L13.801 8.82677C13.3191 8.97402 12.8571 9.16595 12.422 9.40255L10.4092 8.02556C10.2206 7.89651 9.93687 7.92298 9.77555 8.08471L8.05649 9.80377C7.89476 9.9655 7.8687 10.2488 7.99734 10.4375L9.38301 12.4626C9.14972 12.8978 8.96069 13.3594 8.81592 13.8404L6.40692 14.2917C6.18273 14.3343 6.00073 14.5531 6.00073 14.7819V17.2128C6.00073 17.4415 6.18273 17.6603 6.40692 17.7029L8.81427 18.1542C8.96111 18.6456 9.15469 19.1171 9.39377 19.5601L8.02381 21.563C7.89476 21.7516 7.92123 22.0353 8.08296 22.1966L9.80161 23.9157C9.96334 24.0774 10.2467 24.1035 10.4353 23.9749L12.4373 22.6045C12.8679 22.8374 13.3249 23.0268 13.8019 23.1732L14.2556 25.5938C14.2982 25.818 14.517 26 14.7458 26H17.1767C17.4054 26 17.6242 25.818 17.6668 25.5938L18.1161 23.1964C18.6128 23.05 19.0897 22.8568 19.5381 22.6169L21.5658 24.0042C21.7544 24.1333 22.0381 24.1068 22.1994 23.9451L23.9181 22.2268C24.0798 22.0651 24.1059 21.7818 23.9772 21.5932L22.5978 19.5771C22.8414 19.1287 23.0375 18.6518 23.1864 18.1542L25.5933 17.7029C25.8175 17.6603 25.9995 17.4415 25.9995 17.2128V14.7819C25.9995 14.5531 25.8171 14.3343 25.5929 14.2917ZM15.9999 20.1715C13.6968 20.1715 11.8292 18.3039 11.8292 15.9996C11.8292 13.6969 13.6968 11.8289 15.9999 11.8289C18.3038 11.8289 20.1718 13.6969 20.1718 15.9996C20.1718 18.3039 18.3034 20.1715 15.9999 20.1715Z" fill="currentColor"/>
</svg>
