<svg width="16" height="17" viewBox="0 0 16 17" fill="none" xmlns="http://www.w3.org/2000/svg">
<path d="M16 8.5C16 10.6217 15.1571 12.6566 13.6569 14.1569C12.1566 15.6571 10.1217 16.5 8 16.5C5.87827 16.5 3.84344 15.6571 2.34315 14.1569C0.842855 12.6566 0 10.6217 0 8.5C0 6.37827 0.842855 4.34344 2.34315 2.84315C3.84344 1.34285 5.87827 0.5 8 0.5C10.1217 0.5 12.1566 1.34285 13.6569 2.84315C15.1571 4.34344 16 6.37827 16 8.5Z" fill="currentColor"/>
<path fill-rule="evenodd" clip-rule="evenodd" d="M4.66667 11.5C4.66667 11.5 4 11.5 4 10.8333C4 10.1667 4.66667 8.16667 8 8.16667C11.3333 8.16667 12 10.1667 12 10.8333C12 11.5 11.3333 11.5 11.3333 11.5H4.66667ZM8 7.5C8.53043 7.5 9.03914 7.28929 9.41422 6.91421C9.78929 6.53914 10 6.03043 10 5.5C10 4.96957 9.78929 4.46086 9.41422 4.08579C9.03914 3.71071 8.53043 3.5 8 3.5C7.46957 3.5 6.96086 3.71071 6.58579 4.08579C6.21071 4.46086 6 4.96957 6 5.5C6 6.03043 6.21071 6.53914 6.58579 6.91421C6.96086 7.28929 7.46957 7.5 8 7.5Z" fill="white"/>
</svg>
