<svg width="0" height="0" class="hidden">
  <symbol xmlns="http://www.w3.org/2000/svg" viewBox="0 0 8 15" id="ic_arr_hor">
    <path d="M7 1L1 7.49996L7 14" stroke="currentColor" stroke-linecap="round" stroke-linejoin="round" fill="none"></path>
  </symbol>
  <symbol xmlns="http://www.w3.org/2000/svg" viewBox="0 0 11 12" id="ic_arr_ver">
    <path d="M4.98229 8.15875L1.68504 4.38988C1.29591 3.94644 1.61216 3.25 2.20273 3.25H8.79723C8.92939 3.24989 9.05879 3.28787 9.16993 3.35941C9.28106 3.43095 9.36922 3.533 9.42385 3.65335C9.47847 3.7737 9.49725 3.90725 9.47793 4.038C9.45861 4.16875 9.40201 4.29115 9.31491 4.39056L6.01766 8.15806C5.95313 8.23191 5.87355 8.29109 5.78426 8.33164C5.69498 8.37219 5.59804 8.39317 5.49998 8.39317C5.40191 8.39317 5.30498 8.37219 5.21569 8.33164C5.1264 8.29109 5.04682 8.23191 4.98229 8.15806V8.15875Z" fill="currentColor"></path>
  </symbol>
  <symbol xmlns="http://www.w3.org/2000/svg" viewBox="0 0 14 14" id="ic_calendar">
    <path d="M12.25 0H1.75C1.28587 0 0.840752 0.184374 0.512563 0.512563C0.184374 0.840752 0 1.28587 0 1.75L0 12.25C0 12.7141 0.184374 13.1592 0.512563 13.4874C0.840752 13.8156 1.28587 14 1.75 14H12.25C12.7141 14 13.1592 13.8156 13.4874 13.4874C13.8156 13.1592 14 12.7141 14 12.25V1.75C14 1.28587 13.8156 0.840752 13.4874 0.512563C13.1592 0.184374 12.7141 0 12.25 0V0ZM0.875 3.37488C0.875 2.961 1.267 2.625 1.75 2.625H12.25C12.733 2.625 13.125 2.961 13.125 3.37488V12.3751C13.125 12.789 12.733 13.125 12.25 13.125H1.75C1.267 13.125 0.875 12.789 0.875 12.3751V3.37488Z" fill="currentColor"></path>
    <path d="M5.6875 6.125C5.91956 6.125 6.14212 6.03281 6.30622 5.86872C6.47031 5.70462 6.5625 5.48206 6.5625 5.25C6.5625 5.01794 6.47031 4.79538 6.30622 4.63128C6.14212 4.46719 5.91956 4.375 5.6875 4.375C5.45544 4.375 5.23288 4.46719 5.06878 4.63128C4.90469 4.79538 4.8125 5.01794 4.8125 5.25C4.8125 5.48206 4.90469 5.70462 5.06878 5.86872C5.23288 6.03281 5.45544 6.125 5.6875 6.125ZM8.3125 6.125C8.54456 6.125 8.76712 6.03281 8.93122 5.86872C9.09531 5.70462 9.1875 5.48206 9.1875 5.25C9.1875 5.01794 9.09531 4.79538 8.93122 4.63128C8.76712 4.46719 8.54456 4.375 8.3125 4.375C8.08044 4.375 7.85788 4.46719 7.69378 4.63128C7.52969 4.79538 7.4375 5.01794 7.4375 5.25C7.4375 5.48206 7.52969 5.70462 7.69378 5.86872C7.85788 6.03281 8.08044 6.125 8.3125 6.125ZM10.9375 6.125C11.1696 6.125 11.3921 6.03281 11.5562 5.86872C11.7203 5.70462 11.8125 5.48206 11.8125 5.25C11.8125 5.01794 11.7203 4.79538 11.5562 4.63128C11.3921 4.46719 11.1696 4.375 10.9375 4.375C10.7054 4.375 10.4829 4.46719 10.3188 4.63128C10.1547 4.79538 10.0625 5.01794 10.0625 5.25C10.0625 5.48206 10.1547 5.70462 10.3188 5.86872C10.4829 6.03281 10.7054 6.125 10.9375 6.125ZM3.0625 8.75C3.29456 8.75 3.51712 8.65781 3.68122 8.49372C3.84531 8.32962 3.9375 8.10706 3.9375 7.875C3.9375 7.64294 3.84531 7.42038 3.68122 7.25628C3.51712 7.09219 3.29456 7 3.0625 7C2.83044 7 2.60788 7.09219 2.44378 7.25628C2.27969 7.42038 2.1875 7.64294 2.1875 7.875C2.1875 8.10706 2.27969 8.32962 2.44378 8.49372C2.60788 8.65781 2.83044 8.75 3.0625 8.75ZM5.6875 8.75C5.91956 8.75 6.14212 8.65781 6.30622 8.49372C6.47031 8.32962 6.5625 8.10706 6.5625 7.875C6.5625 7.64294 6.47031 7.42038 6.30622 7.25628C6.14212 7.09219 5.91956 7 5.6875 7C5.45544 7 5.23288 7.09219 5.06878 7.25628C4.90469 7.42038 4.8125 7.64294 4.8125 7.875C4.8125 8.10706 4.90469 8.32962 5.06878 8.49372C5.23288 8.65781 5.45544 8.75 5.6875 8.75ZM8.3125 8.75C8.54456 8.75 8.76712 8.65781 8.93122 8.49372C9.09531 8.32962 9.1875 8.10706 9.1875 7.875C9.1875 7.64294 9.09531 7.42038 8.93122 7.25628C8.76712 7.09219 8.54456 7 8.3125 7C8.08044 7 7.85788 7.09219 7.69378 7.25628C7.52969 7.42038 7.4375 7.64294 7.4375 7.875C7.4375 8.10706 7.52969 8.32962 7.69378 8.49372C7.85788 8.65781 8.08044 8.75 8.3125 8.75ZM10.9375 8.75C11.1696 8.75 11.3921 8.65781 11.5562 8.49372C11.7203 8.32962 11.8125 8.10706 11.8125 7.875C11.8125 7.64294 11.7203 7.42038 11.5562 7.25628C11.3921 7.09219 11.1696 7 10.9375 7C10.7054 7 10.4829 7.09219 10.3188 7.25628C10.1547 7.42038 10.0625 7.64294 10.0625 7.875C10.0625 8.10706 10.1547 8.32962 10.3188 8.49372C10.4829 8.65781 10.7054 8.75 10.9375 8.75ZM3.0625 11.375C3.29456 11.375 3.51712 11.2828 3.68122 11.1187C3.84531 10.9546 3.9375 10.7321 3.9375 10.5C3.9375 10.2679 3.84531 10.0454 3.68122 9.88128C3.51712 9.71719 3.29456 9.625 3.0625 9.625C2.83044 9.625 2.60788 9.71719 2.44378 9.88128C2.27969 10.0454 2.1875 10.2679 2.1875 10.5C2.1875 10.7321 2.27969 10.9546 2.44378 11.1187C2.60788 11.2828 2.83044 11.375 3.0625 11.375ZM5.6875 11.375C5.91956 11.375 6.14212 11.2828 6.30622 11.1187C6.47031 10.9546 6.5625 10.7321 6.5625 10.5C6.5625 10.2679 6.47031 10.0454 6.30622 9.88128C6.14212 9.71719 5.91956 9.625 5.6875 9.625C5.45544 9.625 5.23288 9.71719 5.06878 9.88128C4.90469 10.0454 4.8125 10.2679 4.8125 10.5C4.8125 10.7321 4.90469 10.9546 5.06878 11.1187C5.23288 11.2828 5.45544 11.375 5.6875 11.375ZM8.3125 11.375C8.54456 11.375 8.76712 11.2828 8.93122 11.1187C9.09531 10.9546 9.1875 10.7321 9.1875 10.5C9.1875 10.2679 9.09531 10.0454 8.93122 9.88128C8.76712 9.71719 8.54456 9.625 8.3125 9.625C8.08044 9.625 7.85788 9.71719 7.69378 9.88128C7.52969 10.0454 7.4375 10.2679 7.4375 10.5C7.4375 10.7321 7.52969 10.9546 7.69378 11.1187C7.85788 11.2828 8.08044 11.375 8.3125 11.375Z" fill="currentColor"></path>
  </symbol>
  <symbol xmlns="http://www.w3.org/2000/svg" viewBox="0 0 9 6" id="ic_check">
    <path d="M8.72472 1.55473L4.31648 5.73881C3.94944 6.08706 3.32022 6.08706 2.95318 5.73881L0.275281 3.19652C-0.0917603 2.84826 -0.0917603 2.30099 0.275281 1.90298C0.642322 1.55473 1.27153 1.55473 1.63858 1.90298L3.63483 3.79851L7.36142 0.261194C7.72846 -0.0870647 8.35768 -0.0870647 8.72472 0.261194C9.09176 0.609453 9.09176 1.20647 8.72472 1.55473Z" fill="currentColor"></path>
  </symbol>
  <symbol xmlns="http://www.w3.org/2000/svg" viewBox="0 0 20 20" id="ic_close">
    <path d="M5.80749 5.80752C5.86554 5.74931 5.93451 5.70314 6.01045 5.67163C6.08638 5.64012 6.16778 5.6239 6.24999 5.6239C6.3322 5.6239 6.4136 5.64012 6.48953 5.67163C6.56546 5.70314 6.63443 5.74931 6.69249 5.80752L9.99999 9.11627L13.3075 5.80752C13.3656 5.74941 13.4346 5.70331 13.5105 5.67186C13.5864 5.64042 13.6678 5.62423 13.75 5.62423C13.8322 5.62423 13.9135 5.64042 13.9895 5.67186C14.0654 5.70331 14.1344 5.74941 14.1925 5.80752C14.2506 5.86563 14.2967 5.93461 14.3281 6.01054C14.3596 6.08646 14.3758 6.16784 14.3758 6.25002C14.3758 6.3322 14.3596 6.41357 14.3281 6.4895C14.2967 6.56542 14.2506 6.63441 14.1925 6.69252L10.8837 10L14.1925 13.3075C14.2506 13.3656 14.2967 13.4346 14.3281 13.5105C14.3596 13.5865 14.3758 13.6678 14.3758 13.75C14.3758 13.8322 14.3596 13.9136 14.3281 13.9895C14.2967 14.0654 14.2506 14.1344 14.1925 14.1925C14.1344 14.2506 14.0654 14.2967 13.9895 14.3282C13.9135 14.3596 13.8322 14.3758 13.75 14.3758C13.6678 14.3758 13.5864 14.3596 13.5105 14.3282C13.4346 14.2967 13.3656 14.2506 13.3075 14.1925L9.99999 10.8838L6.69249 14.1925C6.63438 14.2506 6.56539 14.2967 6.48947 14.3282C6.41354 14.3596 6.33217 14.3758 6.24999 14.3758C6.16781 14.3758 6.08643 14.3596 6.01051 14.3282C5.93458 14.2967 5.8656 14.2506 5.80749 14.1925C5.74938 14.1344 5.70328 14.0654 5.67183 13.9895C5.64038 13.9136 5.6242 13.8322 5.6242 13.75C5.6242 13.6678 5.64038 13.5865 5.67183 13.5105C5.70328 13.4346 5.74938 13.3656 5.80749 13.3075L9.11624 10L5.80749 6.69252C5.74928 6.63446 5.7031 6.56549 5.6716 6.48956C5.64009 6.41363 5.62387 6.33223 5.62387 6.25002C5.62387 6.16781 5.64009 6.08641 5.6716 6.01048C5.7031 5.93454 5.74928 5.86558 5.80749 5.80752Z" fill="currentColor"></path>
  </symbol>
  <symbol xmlns="http://www.w3.org/2000/svg" viewBox="0 0 16 18" id="ic_delete">
    <path d="M16 9C16 11.1217 15.1571 13.1566 13.6569 14.6569C12.1566 16.1571 10.1217 17 8 17C5.87827 17 3.84344 16.1571 2.34315 14.6569C0.842855 13.1566 0 11.1217 0 9C0 6.87827 0.842855 4.84344 2.34315 3.34315C3.84344 1.84285 5.87827 1 8 1C10.1217 1 12.1566 1.84285 13.6569 3.34315C15.1571 4.84344 16 6.87827 16 9ZM5.354 5.646C5.26011 5.55211 5.13278 5.49937 5 5.49937C4.86722 5.49937 4.73989 5.55211 4.646 5.646C4.55211 5.73989 4.49937 5.86722 4.49937 6C4.49937 6.13278 4.55211 6.26011 4.646 6.354L7.293 9L4.646 11.646C4.59951 11.6925 4.56264 11.7477 4.53748 11.8084C4.51232 11.8692 4.49937 11.9343 4.49937 12C4.49937 12.0657 4.51232 12.1308 4.53748 12.1916C4.56264 12.2523 4.59951 12.3075 4.646 12.354C4.73989 12.4479 4.86722 12.5006 5 12.5006C5.06574 12.5006 5.13084 12.4877 5.19158 12.4625C5.25232 12.4374 5.30751 12.4005 5.354 12.354L8 9.707L10.646 12.354C10.6925 12.4005 10.7477 12.4374 10.8084 12.4625C10.8692 12.4877 10.9343 12.5006 11 12.5006C11.0657 12.5006 11.1308 12.4877 11.1916 12.4625C11.2523 12.4374 11.3075 12.4005 11.354 12.354C11.4005 12.3075 11.4374 12.2523 11.4625 12.1916C11.4877 12.1308 11.5006 12.0657 11.5006 12C11.5006 11.9343 11.4877 11.8692 11.4625 11.8084C11.4374 11.7477 11.4005 11.6925 11.354 11.646L8.707 9L11.354 6.354C11.4005 6.30751 11.4374 6.25232 11.4625 6.19158C11.4877 6.13084 11.5006 6.06574 11.5006 6C11.5006 5.93426 11.4877 5.86916 11.4625 5.80842C11.4374 5.74768 11.4005 5.69249 11.354 5.646C11.3075 5.59951 11.2523 5.56264 11.1916 5.53748C11.1308 5.51232 11.0657 5.49937 11 5.49937C10.9343 5.49937 10.8692 5.51232 10.8084 5.53748C10.7477 5.56264 10.6925 5.59951 10.646 5.646L8 8.293L5.354 5.646Z" fill="currentColor"></path>
  </symbol>
  <symbol xmlns="http://www.w3.org/2000/svg" viewBox="0 0 16 18" id="ic_edit">
    <path d="M16 9C16 13.4183 12.4183 17 8 17C3.58172 17 0 13.4183 0 9C0 4.58172 3.58172 1 8 1C12.4183 1 16 4.58172 16 9Z" fill="currentColor"></path>
    <path d="M11.8998 5.98919C11.964 6.05355 12 6.14073 12 6.23161C12 6.32249 11.964 6.40967 11.8998 6.47403L11.1834 7.191L9.80975 5.8175L10.5261 5.10054C10.5905 5.03616 10.6779 5 10.7689 5C10.86 5 10.9473 5.03616 11.0117 5.10054L11.8998 5.98919ZM10.6978 7.67584L9.32416 6.30234L4.64474 10.9818C4.60694 11.0196 4.57848 11.0657 4.56164 11.1164L4.00873 12.7743C3.99871 12.8045 3.99728 12.8369 4.00462 12.8679C4.01196 12.8989 4.02777 12.9272 4.05029 12.9497C4.07281 12.9722 4.10115 12.988 4.13214 12.9954C4.16313 13.0027 4.19555 13.0013 4.22577 12.9913L5.8838 12.4384C5.93446 12.4218 5.98055 12.3936 6.01842 12.356L10.6978 7.67584Z" fill="white"></path>
  </symbol>
  <symbol xmlns="http://www.w3.org/2000/svg" viewBox="0 0 16 16" id="ic_file_download">
    <path fill-rule="evenodd" clip-rule="evenodd" d="M3.25 14V2H8.55L12.25 5.7V14H3.25ZM10.25 7.95L8.25 9.75V5H7.25V9.75L5.25 7.95V9.25L7.75 11.5L10.25 9.25V7.95Z" fill="currentColor"></path>
  </symbol>
  <symbol xmlns="http://www.w3.org/2000/svg" viewBox="0 0 32 32" id="ic_file_exel">
    <path fill-rule="evenodd" clip-rule="evenodd" d="M7.75 27V5H17.4667L24.25 11.7833V27H7.75ZM21.1333 14.1667H18.6583L16 17.1917L13.3417 14.1667H10.8667L14.7167 18.5667L10.5 23.3333H12.975L16 19.85L19.025 23.3333H21.5L17.1917 18.5667L21.1333 14.1667Z" fill="currentColor"></path>
  </symbol>
  <symbol xmlns="http://www.w3.org/2000/svg" viewBox="0 0 17 16" id="ic_filter">
    <path d="M13.9166 3.125H3.08325L7.41659 8.24917V11.7917L9.58325 12.875V8.24917L13.9166 3.125Z" fill="currentColor"></path>
  </symbol>
  <symbol xmlns="http://www.w3.org/2000/svg" viewBox="0 0 16 16" id="ic_number">
    <path fill-rule="evenodd" clip-rule="evenodd" d="M1 7.99992C1 7.86731 1.05268 7.74013 1.14645 7.64636C1.24021 7.5526 1.36739 7.49992 1.5 7.49992H14.5C14.6326 7.49992 14.7598 7.5526 14.8536 7.64636C14.9473 7.74013 15 7.86731 15 7.99992C15 8.13253 14.9473 8.2597 14.8536 8.35347C14.7598 8.44724 14.6326 8.49992 14.5 8.49992H1.5C1.36739 8.49992 1.24021 8.44724 1.14645 8.35347C1.05268 8.2597 1 8.13253 1 7.99992ZM7.646 0.145917C7.69245 0.099354 7.74762 0.0624111 7.80837 0.0372047C7.86911 0.0119982 7.93423 -0.000976563 8 -0.000976562C8.06577 -0.000976563 8.13089 0.0119982 8.19163 0.0372047C8.25238 0.0624111 8.30755 0.099354 8.354 0.145917L10.354 2.14592C10.4005 2.19241 10.4374 2.24759 10.4625 2.30833C10.4877 2.36907 10.5006 2.43417 10.5006 2.49992C10.5006 2.56566 10.4877 2.63076 10.4625 2.6915C10.4374 2.75224 10.4005 2.80743 10.354 2.85392C10.3075 2.90041 10.2523 2.93728 10.1916 2.96244C10.1308 2.9876 10.0657 3.00055 10 3.00055C9.93426 3.00055 9.86916 2.9876 9.80842 2.96244C9.74768 2.93728 9.69249 2.90041 9.646 2.85392L8.5 1.70692V5.49992C8.5 5.63253 8.44732 5.7597 8.35355 5.85347C8.25979 5.94724 8.13261 5.99992 8 5.99992C7.86739 5.99992 7.74021 5.94724 7.64645 5.85347C7.55268 5.7597 7.5 5.63253 7.5 5.49992V1.70692L6.354 2.85392C6.26011 2.9478 6.13278 3.00055 6 3.00055C5.86722 3.00055 5.73989 2.9478 5.646 2.85392C5.55211 2.76003 5.49937 2.63269 5.49937 2.49992C5.49937 2.36714 5.55211 2.2398 5.646 2.14592L7.646 0.145917ZM8 9.99992C8.13261 9.99992 8.25979 10.0526 8.35355 10.1464C8.44732 10.2401 8.5 10.3673 8.5 10.4999V14.2929L9.646 13.1459C9.73989 13.052 9.86722 12.9993 10 12.9993C10.1328 12.9993 10.2601 13.052 10.354 13.1459C10.4479 13.2398 10.5006 13.3671 10.5006 13.4999C10.5006 13.6327 10.4479 13.76 10.354 13.8539L8.354 15.8539C8.30755 15.9005 8.25238 15.9374 8.19163 15.9626C8.13089 15.9878 8.06577 16.0008 8 16.0008C7.93423 16.0008 7.86911 15.9878 7.80837 15.9626C7.74762 15.9374 7.69245 15.9005 7.646 15.8539L5.646 13.8539C5.59951 13.8074 5.56264 13.7522 5.53748 13.6915C5.51232 13.6308 5.49937 13.5657 5.49937 13.4999C5.49937 13.4342 5.51232 13.3691 5.53748 13.3083C5.56264 13.2476 5.59951 13.1924 5.646 13.1459C5.73989 13.052 5.86722 12.9993 6 12.9993C6.06574 12.9993 6.13084 13.0122 6.19158 13.0374C6.25232 13.0626 6.30751 13.0994 6.354 13.1459L7.5 14.2929V10.4999C7.5 10.3673 7.55268 10.2401 7.64645 10.1464C7.74021 10.0526 7.86739 9.99992 8 9.99992Z" fill="currentColor"></path>
  </symbol>
  <symbol xmlns="http://www.w3.org/2000/svg" viewBox="0 0 16 16" id="ic_remove">
    <path id="Vector" d="M5.5 5.5C5.63261 5.5 5.75979 5.55268 5.85355 5.64645C5.94732 5.74021 6 5.86739 6 6V12C6 12.1326 5.94732 12.2598 5.85355 12.3536C5.75979 12.4473 5.63261 12.5 5.5 12.5C5.36739 12.5 5.24021 12.4473 5.14645 12.3536C5.05268 12.2598 5 12.1326 5 12V6C5 5.86739 5.05268 5.74021 5.14645 5.64645C5.24021 5.55268 5.36739 5.5 5.5 5.5V5.5ZM8 5.5C8.13261 5.5 8.25979 5.55268 8.35355 5.64645C8.44732 5.74021 8.5 5.86739 8.5 6V12C8.5 12.1326 8.44732 12.2598 8.35355 12.3536C8.25979 12.4473 8.13261 12.5 8 12.5C7.86739 12.5 7.74021 12.4473 7.64645 12.3536C7.55268 12.2598 7.5 12.1326 7.5 12V6C7.5 5.86739 7.55268 5.74021 7.64645 5.64645C7.74021 5.55268 7.86739 5.5 8 5.5V5.5ZM11 6C11 5.86739 10.9473 5.74021 10.8536 5.64645C10.7598 5.55268 10.6326 5.5 10.5 5.5C10.3674 5.5 10.2402 5.55268 10.1464 5.64645C10.0527 5.74021 10 5.86739 10 6V12C10 12.1326 10.0527 12.2598 10.1464 12.3536C10.2402 12.4473 10.3674 12.5 10.5 12.5C10.6326 12.5 10.7598 12.4473 10.8536 12.3536C10.9473 12.2598 11 12.1326 11 12V6Z" fill="currentColor"></path>
    <path id="Vector_2" fill-rule="evenodd" clip-rule="evenodd" d="M14.5 3C14.5 3.26522 14.3946 3.51957 14.2071 3.70711C14.0196 3.89464 13.7652 4 13.5 4H13V13C13 13.5304 12.7893 14.0391 12.4142 14.4142C12.0391 14.7893 11.5304 15 11 15H5C4.46957 15 3.96086 14.7893 3.58579 14.4142C3.21071 14.0391 3 13.5304 3 13V4H2.5C2.23478 4 1.98043 3.89464 1.79289 3.70711C1.60536 3.51957 1.5 3.26522 1.5 3V2C1.5 1.73478 1.60536 1.48043 1.79289 1.29289C1.98043 1.10536 2.23478 1 2.5 1H6C6 0.734784 6.10536 0.48043 6.29289 0.292893C6.48043 0.105357 6.73478 0 7 0L9 0C9.26522 0 9.51957 0.105357 9.70711 0.292893C9.89464 0.48043 10 0.734784 10 1H13.5C13.7652 1 14.0196 1.10536 14.2071 1.29289C14.3946 1.48043 14.5 1.73478 14.5 2V3ZM4.118 4L4 4.059V13C4 13.2652 4.10536 13.5196 4.29289 13.7071C4.48043 13.8946 4.73478 14 5 14H11C11.2652 14 11.5196 13.8946 11.7071 13.7071C11.8946 13.5196 12 13.2652 12 13V4.059L11.882 4H4.118ZM2.5 3V2H13.5V3H2.5Z" fill="currentColor"></path>
  </symbol>
  <symbol xmlns="http://www.w3.org/2000/svg" viewBox="0 0 32 32" id="ic_settings">
    <path d="M15.9999 17.7236C16.9518 17.7236 17.7235 16.9519 17.7235 16C17.7235 15.0481 16.9518 14.2764 15.9999 14.2764C15.048 14.2764 14.2763 15.0481 14.2763 16C14.2763 16.9519 15.048 17.7236 15.9999 17.7236Z" fill="currentColor"></path>
    <path d="M25.5929 14.2917L23.1835 13.84C23.0371 13.3527 22.8451 12.8853 22.6077 12.4456L24.0016 10.4077C24.1307 10.2191 24.1042 9.93531 23.9425 9.77399L22.2239 8.05493C22.0621 7.8932 21.7788 7.86714 21.5902 7.99578L19.5518 9.39055C19.0993 9.14651 18.6174 8.95086 18.1152 8.80319L17.666 6.4066C17.6234 6.182 17.4046 6 17.1759 6H14.7449C14.5162 6 14.2974 6.182 14.2548 6.4066L13.801 8.82677C13.3191 8.97402 12.8571 9.16595 12.422 9.40255L10.4092 8.02556C10.2206 7.89651 9.93687 7.92298 9.77555 8.08471L8.05649 9.80377C7.89476 9.9655 7.8687 10.2488 7.99734 10.4375L9.38301 12.4626C9.14972 12.8978 8.96069 13.3594 8.81592 13.8404L6.40692 14.2917C6.18273 14.3343 6.00073 14.5531 6.00073 14.7819V17.2128C6.00073 17.4415 6.18273 17.6603 6.40692 17.7029L8.81427 18.1542C8.96111 18.6456 9.15469 19.1171 9.39377 19.5601L8.02381 21.563C7.89476 21.7516 7.92123 22.0353 8.08296 22.1966L9.80161 23.9157C9.96334 24.0774 10.2467 24.1035 10.4353 23.9749L12.4373 22.6045C12.8679 22.8374 13.3249 23.0268 13.8019 23.1732L14.2556 25.5938C14.2982 25.818 14.517 26 14.7458 26H17.1767C17.4054 26 17.6242 25.818 17.6668 25.5938L18.1161 23.1964C18.6128 23.05 19.0897 22.8568 19.5381 22.6169L21.5658 24.0042C21.7544 24.1333 22.0381 24.1068 22.1994 23.9451L23.9181 22.2268C24.0798 22.0651 24.1059 21.7818 23.9772 21.5932L22.5978 19.5771C22.8414 19.1287 23.0375 18.6518 23.1864 18.1542L25.5933 17.7029C25.8175 17.6603 25.9995 17.4415 25.9995 17.2128V14.7819C25.9995 14.5531 25.8171 14.3343 25.5929 14.2917ZM15.9999 20.1715C13.6968 20.1715 11.8292 18.3039 11.8292 15.9996C11.8292 13.6969 13.6968 11.8289 15.9999 11.8289C18.3038 11.8289 20.1718 13.6969 20.1718 15.9996C20.1718 18.3039 18.3034 20.1715 15.9999 20.1715Z" fill="currentColor"></path>
  </symbol>
  <symbol xmlns="http://www.w3.org/2000/svg" viewBox="0 0 16 16" id="ic_tooltip">
    <path d="M8 15C6.14348 15 4.36301 14.2625 3.05025 12.9497C1.7375 11.637 1 9.85652 1 8C1 6.14348 1.7375 4.36301 3.05025 3.05025C4.36301 1.7375 6.14348 1 8 1C9.85652 1 11.637 1.7375 12.9497 3.05025C14.2625 4.36301 15 6.14348 15 8C15 9.85652 14.2625 11.637 12.9497 12.9497C11.637 14.2625 9.85652 15 8 15ZM8 16C10.1217 16 12.1566 15.1571 13.6569 13.6569C15.1571 12.1566 16 10.1217 16 8C16 5.87827 15.1571 3.84344 13.6569 2.34315C12.1566 0.842855 10.1217 0 8 0C5.87827 0 3.84344 0.842855 2.34315 2.34315C0.842855 3.84344 0 5.87827 0 8C0 10.1217 0.842855 12.1566 2.34315 13.6569C3.84344 15.1571 5.87827 16 8 16Z" fill="currentColor"></path>
    <path d="M5.255 5.786C5.25363 5.81829 5.25888 5.85053 5.27043 5.88072C5.28198 5.91091 5.29958 5.93841 5.32216 5.96155C5.34473 5.98468 5.3718 6.00296 5.40169 6.01524C5.43159 6.02753 5.46368 6.03357 5.496 6.033H6.321C6.459 6.033 6.569 5.92 6.587 5.783C6.677 5.127 7.127 4.649 7.929 4.649C8.615 4.649 9.243 4.992 9.243 5.817C9.243 6.452 8.869 6.744 8.278 7.188C7.605 7.677 7.072 8.248 7.11 9.175L7.113 9.392C7.11405 9.45761 7.14085 9.52017 7.18762 9.5662C7.23439 9.61222 7.29738 9.63801 7.363 9.638H8.174C8.2403 9.638 8.30389 9.61166 8.35078 9.56478C8.39766 9.51789 8.424 9.4543 8.424 9.388V9.283C8.424 8.565 8.697 8.356 9.434 7.797C10.043 7.334 10.678 6.82 10.678 5.741C10.678 4.23 9.402 3.5 8.005 3.5C6.738 3.5 5.35 4.09 5.255 5.786ZM6.812 11.549C6.812 12.082 7.237 12.476 7.822 12.476C8.431 12.476 8.85 12.082 8.85 11.549C8.85 10.997 8.43 10.609 7.821 10.609C7.237 10.609 6.812 10.997 6.812 11.549Z" fill="currentColor"></path>
  </symbol>
  <symbol fill="none" xmlns="http://www.w3.org/2000/svg" viewBox="0 0 16 17" id="ic_user">
    <path d="M16 8.5C16 10.6217 15.1571 12.6566 13.6569 14.1569C12.1566 15.6571 10.1217 16.5 8 16.5C5.87827 16.5 3.84344 15.6571 2.34315 14.1569C0.842855 12.6566 0 10.6217 0 8.5C0 6.37827 0.842855 4.34344 2.34315 2.84315C3.84344 1.34285 5.87827 0.5 8 0.5C10.1217 0.5 12.1566 1.34285 13.6569 2.84315C15.1571 4.34344 16 6.37827 16 8.5Z" fill="currentColor"></path>
    <path fill-rule="evenodd" clip-rule="evenodd" d="M4.66667 11.5C4.66667 11.5 4 11.5 4 10.8333C4 10.1667 4.66667 8.16667 8 8.16667C11.3333 8.16667 12 10.1667 12 10.8333C12 11.5 11.3333 11.5 11.3333 11.5H4.66667ZM8 7.5C8.53043 7.5 9.03914 7.28929 9.41422 6.91421C9.78929 6.53914 10 6.03043 10 5.5C10 4.96957 9.78929 4.46086 9.41422 4.08579C9.03914 3.71071 8.53043 3.5 8 3.5C7.46957 3.5 6.96086 3.71071 6.58579 4.08579C6.21071 4.46086 6 4.96957 6 5.5C6 6.03043 6.21071 6.53914 6.58579 6.91421C6.96086 7.28929 7.46957 7.5 8 7.5Z" fill="white"></path>
  </symbol>
</svg>